{"title":"Priya Rai - xXx Femdom ass worship 3@Mastitorrents","uid":5503384,"size":395142796,"categoryP":"porn","categoryS":"movie_clips","magnet":"?xt=urn:btih:0d3c31acc3fb574edc1e3819f6793f2c80b4c381&amp;dn=Priya+Rai+-+xXx+Femdom+ass+worship+3%40Mastitorrents&amp;tr=udp%3A%2F%2Ftracker.openbittorrent.com%3A80&amp;tr=udp%3A%2F%2Fopen.demonii.com%3A1337&amp;tr=udp%3A%2F%2Ftracker.coppersurfer.tk%3A6969&amp;tr=udp%3A%2F%2Fexodus.desync.com%3A6969","seeders":0,"leechers":7,"uploader":"amanrulz","files":1,"time":1271671994,"description":"mastitorrents.com &lt;a href=&quot;\nhttp://mastitorrents.com/forums/index.php&quot; rel=&quot;nofollow&quot; target=&quot;_NEW&quot;&gt;\nhttp://mastitorrents.com/forums/index.php&lt;/a&gt;\n\n\nGeneral\nComplete name : Priya Rai - Femdom *** worship 3.avi\nFormat : AVI\nFormat/Info : Audio Video Interleave\nFile size : 377 MiB\nDuration : 38mn 34s\n\nVideo\nID : 0\nFormat : MPEG-4 Visual\nFormat profile : Advanced Simple@L5\nFormat settings, BVOP : Yes\nFormat settings, QPel : No\nFormat settings, GMC : No warppoints\nFormat settings, Matrix : Default (H.263)\nCodec ID : XVID\nCodec ID/Hint : XviD\nBit rate : 1 224 Kbps\nWidth : 576 pixels\nHeight : 320 pixels\nDisplay aspect ratio : 16:9\nFrame rate : 29.970 fps\nResolution : 8 bits\nColorimetry : 4:2:0\nScan type : Progressive\nBits/(Pixel*Frame) : 0.222\nStream size : 338 MiB (90%)\nWriting library : XviD 1.2.1 (UTC 2008-12-04)\n\nAudio\nID : 1\nFormat : MPEG Audio\nFormat version : Version 1\nFormat profile : Layer 3\nMode : Joint stereo\nFormat_Settings_ModeExtension : MS Stereo\nCodec ID : 55\nCodec ID/Hint : MP3\nBit rate mode : Variable\nBit rate : 128 Kbps\nChannel(s) : 2 channels\nSampling rate : 48.0 KHz\nStream size : 35.4 MiB (9%)\nAlignment : Aligned on interleaves\nInterleave, duration : 24 ms (0.72 video frame)\nInterleave, preload duration : 491 ms","torrent":{"xt":"urn:btih:0d3c31acc3fb574edc1e3819f6793f2c80b4c381","amp;dn":"Priya+Rai+-+xXx+Femdom+ass+worship+3%40Mastitorrents","amp;tr":["udp%3A%2F%2Ftracker.openbittorrent.com%3A80","udp%3A%2F%2Fopen.demonii.com%3A1337","udp%3A%2F%2Ftracker.coppersurfer.tk%3A6969","udp%3A%2F%2Fexodus.desync.com%3A6969"],"infoHash":"0d3c31acc3fb574edc1e3819f6793f2c80b4c381","infoHashBuffer":{"type":"Buffer","data":[13,60,49,172,195,251,87,78,220,30,56,25,246,121,63,44,128,180,195,129]},"announce":[],"urlList":[]}}